ISO-10303-21;
HEADER;
/* Generated by software containing ST-Developer
 * from STEP Tools, Inc. (www.steptools.com) 
 */

FILE_DESCRIPTION(
/* description */ (''),
/* implementation_level */ '2;1');

FILE_NAME(
/* name */ 'MotorMountV1.step',
/* time_stamp */ '2026-08-28T13:19:38+07:00',
/* author */ (''),
/* organization */ (''),
/* preprocessor_version */ 'ST-DEVELOPER v20.1',
/* originating_system */ 'Autodesk Translation Framework v15.8.0.0',
/* authorisation */ '');

FILE_SCHEMA (('AUTOMOTIVE_DESIGN { 1 0 10303 214 3 1 1 }'));
ENDSEC;

DATA;
#10=MECHANICAL_DESIGN_GEOMETRIC_PRESENTATION_REPRESENTATION('',(#13),#1040);
#11=SHAPE_REPRESENTATION_RELATIONSHIP('SRR','None',#1047,#12);
#12=ADVANCED_BREP_SHAPE_REPRESENTATION('',(#14),#1039);
#13=STYLED_ITEM('',(#1056),#14);
#14=MANIFOLD_SOLID_BREP('MeshBody1',#460);
#15=FACE_BOUND('',#97,.T.);
#16=FACE_BOUND('',#98,.T.);
#17=FACE_BOUND('',#99,.T.);
#18=FACE_BOUND('',#100,.T.);
#19=FACE_BOUND('',#101,.T.);
#20=FACE_BOUND('',#103,.T.);
#21=FACE_BOUND('',#104,.T.);
#22=FACE_BOUND('',#105,.T.);
#23=FACE_BOUND('',#106,.T.);
#24=FACE_BOUND('',#107,.T.);
#25=FACE_BOUND('',#112,.T.);
#26=FACE_BOUND('',#113,.T.);
#27=FACE_BOUND('',#114,.T.);
#28=FACE_BOUND('',#115,.T.);
#29=PLANE('',#508);
#30=PLANE('',#509);
#31=PLANE('',#510);
#32=PLANE('',#511);
#33=PLANE('',#512);
#34=PLANE('',#513);
#35=PLANE('',#514);
#36=PLANE('',#515);
#37=PLANE('',#516);
#38=PLANE('',#517);
#39=PLANE('',#518);
#40=PLANE('',#519);
#41=PLANE('',#520);
#42=CYLINDRICAL_SURFACE('',#482,21.2499998212805);
#43=CYLINDRICAL_SURFACE('',#484,40.0000005205199);
#44=CYLINDRICAL_SURFACE('',#487,17.4999993298438);
#45=CYLINDRICAL_SURFACE('',#490,17.5000007032134);
#46=CYLINDRICAL_SURFACE('',#493,125.);
#47=CYLINDRICAL_SURFACE('',#496,17.500000368073);
#48=CYLINDRICAL_SURFACE('',#499,17.499999724018);
#49=CYLINDRICAL_SURFACE('',#502,21.2500001681319);
#50=CYLINDRICAL_SURFACE('',#504,21.2499999009793);
#51=CYLINDRICAL_SURFACE('',#506,21.2500000884263);
#52=FACE_OUTER_BOUND('',#79,.T.);
#53=FACE_OUTER_BOUND('',#80,.T.);
#54=FACE_OUTER_BOUND('',#81,.T.);
#55=FACE_OUTER_BOUND('',#82,.T.);
#56=FACE_OUTER_BOUND('',#83,.T.);
#57=FACE_OUTER_BOUND('',#84,.T.);
#58=FACE_OUTER_BOUND('',#85,.T.);
#59=FACE_OUTER_BOUND('',#86,.T.);
#60=FACE_OUTER_BOUND('',#87,.T.);
#61=FACE_OUTER_BOUND('',#88,.T.);
#62=FACE_OUTER_BOUND('',#89,.T.);
#63=FACE_OUTER_BOUND('',#90,.T.);
#64=FACE_OUTER_BOUND('',#91,.T.);
#65=FACE_OUTER_BOUND('',#92,.T.);
#66=FACE_OUTER_BOUND('',#93,.T.);
#67=FACE_OUTER_BOUND('',#94,.T.);
#68=FACE_OUTER_BOUND('',#95,.T.);
#69=FACE_OUTER_BOUND('',#96,.T.);
#70=FACE_OUTER_BOUND('',#102,.T.);
#71=FACE_OUTER_BOUND('',#108,.T.);
#72=FACE_OUTER_BOUND('',#109,.T.);
#73=FACE_OUTER_BOUND('',#110,.T.);
#74=FACE_OUTER_BOUND('',#111,.T.);
#75=FACE_OUTER_BOUND('',#116,.T.);
#76=FACE_OUTER_BOUND('',#117,.T.);
#77=FACE_OUTER_BOUND('',#118,.T.);
#78=FACE_OUTER_BOUND('',#119,.T.);
#79=EDGE_LOOP('',(#311,#312,#313,#314));
#80=EDGE_LOOP('',(#315,#316,#317,#318));
#81=EDGE_LOOP('',(#319,#320,#321,#322));
#82=EDGE_LOOP('',(#323,#324,#325,#326));
#83=EDGE_LOOP('',(#327,#328,#329,#330));
#84=EDGE_LOOP('',(#331,#332,#333,#334));
#85=EDGE_LOOP('',(#335,#336,#337,#338));
#86=EDGE_LOOP('',(#339,#340,#341,#342));
#87=EDGE_LOOP('',(#343,#344,#345,#346));
#88=EDGE_LOOP('',(#347,#348,#349,#350));
#89=EDGE_LOOP('',(#351,#352,#353,#354));
#90=EDGE_LOOP('',(#355,#356,#357,#358));
#91=EDGE_LOOP('',(#359,#360,#361,#362));
#92=EDGE_LOOP('',(#363,#364,#365,#366));
#93=EDGE_LOOP('',(#367));
#94=EDGE_LOOP('',(#368,#369,#370,#371));
#95=EDGE_LOOP('',(#372,#373,#374,#375));
#96=EDGE_LOOP('',(#376,#377,#378,#379));
#97=EDGE_LOOP('',(#380));
#98=EDGE_LOOP('',(#381));
#99=EDGE_LOOP('',(#382));
#100=EDGE_LOOP('',(#383));
#101=EDGE_LOOP('',(#384));
#102=EDGE_LOOP('',(#385,#386,#387,#388));
#103=EDGE_LOOP('',(#389));
#104=EDGE_LOOP('',(#390));
#105=EDGE_LOOP('',(#391));
#106=EDGE_LOOP('',(#392));
#107=EDGE_LOOP('',(#393));
#108=EDGE_LOOP('',(#394,#395,#396,#397));
#109=EDGE_LOOP('',(#398,#399,#400,#401,#402,#403,#404,#405));
#110=EDGE_LOOP('',(#406,#407,#408,#409));
#111=EDGE_LOOP('',(#410,#411,#412,#413,#414,#415,#416,#417));
#112=EDGE_LOOP('',(#418));
#113=EDGE_LOOP('',(#419));
#114=EDGE_LOOP('',(#420));
#115=EDGE_LOOP('',(#421));
#116=EDGE_LOOP('',(#422));
#117=EDGE_LOOP('',(#423,#424,#425,#426));
#118=EDGE_LOOP('',(#427));
#119=EDGE_LOOP('',(#428));
#120=B_SPLINE_CURVE_WITH_KNOTS('',3,(#658,#659,#660,#661,#662,#663,#664,
#665,#666,#667,#668,#669,#670,#671,#672,#673,#674,#675,#676,#677,#678,#679,
#680,#681,#682,#683,#684,#685,#686,#687,#688,#689,#690,#691,#692,#693,#694,
#695,#696,#697,#698,#699,#700,#701,#702,#703,#704,#705,#706,#707,#708,#709,
#710,#711,#712,#713,#714,#715,#716,#717,#718,#719,#720,#721,#722,#723),
 .UNSPECIFIED.,.T.,.F.,(4,2,2,2,2,2,2,2,2,2,2,2,2,2,2,2,2,2,2,2,2,2,2,2,
2,2,2,2,2,2,2,2,4),(0.,0.400229614269279,0.800459228538558,1.20068884280784,
1.60091845707712,2.0011480713464,2.40137768561568,2.80160729988496,3.20183691415424,
3.60206652842352,4.0022961426928,4.40252575696208,4.80275537123135,5.20298498550063,
5.60321459976991,6.00344421403919,6.40367382830847,6.80390344257775,7.20413305684703,
7.60436267111631,8.00459228538559,8.40482189965487,8.80505151392415,9.20528112819343,
9.60551074246271,10.005740356732,10.4059699710013,10.8061995852705,11.2064291995398,
11.6066588138091,12.0068884280784,12.4071180423477,12.8073476566169),
 .UNSPECIFIED.);
#121=B_SPLINE_CURVE_WITH_KNOTS('',3,(#729,#730,#731,#732,#733,#734,#735,
#736,#737,#738,#739,#740,#741,#742,#743,#744,#745,#746,#747,#748,#749,#750,
#751,#752,#753,#754,#755,#756,#757,#758,#759,#760,#761,#762,#763,#764,#765,
#766,#767,#768,#769,#770,#771,#772,#773,#774,#775,#776,#777,#778,#779,#780,
#781,#782,#783,#784,#785,#786,#787,#788,#789,#790,#791,#792,#793,#794),
 .UNSPECIFIED.,.T.,.F.,(4,2,2,2,2,2,2,2,2,2,2,2,2,2,2,2,2,2,2,2,2,2,2,2,
2,2,2,2,2,2,2,2,4),(0.,0.400229619300921,0.800459238601842,1.20068885790276,
1.60091847720368,2.00114809650461,2.40137771580553,2.80160733510645,3.20183695440737,
3.60206657370829,4.00229619300922,4.40252581231014,4.80275543161106,5.20298505091198,
5.6032146702129,6.00344428951382,6.40367390881474,6.80390352811566,7.20413314741658,
7.6043627667175,8.00459238601842,8.40482200531934,8.80505162462027,9.20528124392119,
9.60551086322211,10.005740482523,10.405970101824,10.8061997211249,11.2064293404258,
11.6066589597267,12.0068885790276,12.4071181983286,12.8073478176295),
 .UNSPECIFIED.);
#122=B_SPLINE_CURVE_WITH_KNOTS('',3,(#800,#801,#802,#803,#804,#805,#806,
#807,#808,#809,#810,#811,#812,#813,#814,#815,#816,#817,#818,#819,#820,#821,
#822,#823,#824,#825,#826,#827,#828,#829,#830,#831,#832,#833,#834,#835,#836,
#837,#838,#839,#840,#841,#842,#843,#844,#845,#846,#847,#848,#849,#850,#851,
#852,#853,#854,#855,#856,#857,#858,#859,#860,#861,#862,#863,#864,#865),
 .UNSPECIFIED.,.T.,.F.,(4,2,2,2,2,2,2,2,2,2,2,2,2,2,2,2,2,2,2,2,2,2,2,2,
2,2,2,2,2,2,2,2,4),(0.,0.400229617799719,0.800459235599438,1.20068885339916,
1.60091847119888,2.0011480889986,2.40137770679832,2.80160732459804,3.20183694239776,
3.60206656019748,4.0022961779972,4.40252579579692,4.80275541359664,5.20298503139636,
5.60321464919608,6.00344426699579,6.40367388479551,6.80390350259523,7.20413312039495,
7.60436273819468,8.0045923559944,8.40482197379412,8.80505159159384,9.20528120939356,
9.60551082719328,10.005740444993,10.4059700627927,10.8061996805924,11.2064292983922,
11.6066589161919,12.0068885339916,12.4071181517913,12.807347769591),
 .UNSPECIFIED.);
#123=B_SPLINE_CURVE_WITH_KNOTS('',3,(#871,#872,#873,#874,#875,#876,#877,
#878,#879,#880,#881,#882,#883,#884,#885,#886,#887,#888,#889,#890,#891,#892,
#893,#894,#895,#896,#897,#898,#899,#900,#901,#902,#903,#904,#905,#906,#907,
#908,#909,#910,#911,#912,#913,#914,#915,#916,#917,#918,#919,#920,#921,#922,
#923,#924,#925,#926,#927,#928,#929,#930,#931,#932,#933,#934,#935,#936),
 .UNSPECIFIED.,.T.,.F.,(4,2,2,2,2,2,2,2,2,2,2,2,2,2,2,2,2,2,2,2,2,2,2,2,
2,2,2,2,2,2,2,2,4),(0.,0.400229612768207,0.800459225536414,1.20068883830462,
1.60091845107283,2.00114806384103,2.40137767660924,2.80160728937745,3.20183690214565,
3.60206651491386,4.00229612768207,4.40252574045027,4.80275535321848,5.20298496598669,
5.60321457875489,6.0034441915231,6.40367380429131,6.80390341705951,7.20413302982772,
7.60436264259593,8.00459225536414,8.40482186813234,8.80505148090055,9.20528109366875,
9.60551070643696,10.0057403192052,10.4059699319734,10.8061995447416,11.2064291575098,
11.606658770278,12.0068883830462,12.4071179958144,12.8073476085826),
 .UNSPECIFIED.);
#124=LINE('',#657,#159);
#125=LINE('',#728,#160);
#126=LINE('',#799,#161);
#127=LINE('',#870,#162);
#128=LINE('',#939,#163);
#129=LINE('',#945,#164);
#130=LINE('',#951,#165);
#131=LINE('',#957,#166);
#132=LINE('',#962,#167);
#133=LINE('',#966,#168);
#134=LINE('',#972,#169);
#135=LINE('',#978,#170);
#136=LINE('',#982,#171);
#137=LINE('',#986,#172);
#138=LINE('',#990,#173);
#139=LINE('',#996,#174);
#140=LINE('',#997,#175);
#141=LINE('',#998,#176);
#142=LINE('',#1001,#177);
#143=LINE('',#1003,#178);
#144=LINE('',#1004,#179);
#145=LINE('',#1008,#180);
#146=LINE('',#1010,#181);
#147=LINE('',#1012,#182);
#148=LINE('',#1013,#183);
#149=LINE('',#1015,#184);
#150=LINE('',#1019,#185);
#151=LINE('',#1020,#186);
#152=LINE('',#1021,#187);
#153=LINE('',#1024,#188);
#154=LINE('',#1025,#189);
#155=LINE('',#1027,#190);
#156=LINE('',#1028,#191);
#157=LINE('',#1030,#192);
#158=LINE('',#1032,#193);
#159=VECTOR('',#527,10.);
#160=VECTOR('',#532,10.);
#161=VECTOR('',#537,10.);
#162=VECTOR('',#542,10.);
#163=VECTOR('',#545,10.);
#164=VECTOR('',#552,10.);
#165=VECTOR('',#559,10.);
#166=VECTOR('',#566,10.);
#167=VECTOR('',#571,10.);
#168=VECTOR('',#574,10.);
#169=VECTOR('',#581,10.);
#170=VECTOR('',#588,10.);
#171=VECTOR('',#593,10.);
#172=VECTOR('',#598,10.);
#173=VECTOR('',#603,10.);
#174=VECTOR('',#610,10.);
#175=VECTOR('',#611,10.);
#176=VECTOR('',#612,10.);
#177=VECTOR('',#615,10.);
#178=VECTOR('',#616,10.);
#179=VECTOR('',#617,10.);
#180=VECTOR('',#620,10.);
#181=VECTOR('',#621,10.);
#182=VECTOR('',#622,10.);
#183=VECTOR('',#623,10.);
#184=VECTOR('',#626,10.);
#185=VECTOR('',#629,10.);
#186=VECTOR('',#630,10.);
#187=VECTOR('',#631,10.);
#188=VECTOR('',#634,10.);
#189=VECTOR('',#635,10.);
#190=VECTOR('',#636,10.);
#191=VECTOR('',#637,10.);
#192=VECTOR('',#640,10.);
#193=VECTOR('',#643,10.);
#194=CIRCLE('',#475,26.250000066145);
#195=CIRCLE('',#477,26.2499998956702);
#196=CIRCLE('',#479,26.2500010166274);
#197=CIRCLE('',#481,26.2500011873775);
#198=CIRCLE('',#483,21.2499998212805);
#199=CIRCLE('',#485,40.0000005205199);
#200=CIRCLE('',#486,40.0000005205199);
#201=CIRCLE('',#488,17.4999993298438);
#202=CIRCLE('',#489,17.4999993298438);
#203=CIRCLE('',#491,17.5000007032134);
#204=CIRCLE('',#492,17.5000007032134);
#205=CIRCLE('',#494,125.);
#206=CIRCLE('',#495,125.);
#207=CIRCLE('',#497,17.500000368073);
#208=CIRCLE('',#498,17.500000368073);
#209=CIRCLE('',#500,17.499999724018);
#210=CIRCLE('',#501,17.499999724018);
#211=CIRCLE('',#503,21.2500001681319);
#212=CIRCLE('',#505,21.2499999009793);
#213=CIRCLE('',#507,21.2500000884263);
#214=VERTEX_POINT('',#654);
#215=VERTEX_POINT('',#656);
#216=VERTEX_POINT('',#725);
#217=VERTEX_POINT('',#727);
#218=VERTEX_POINT('',#796);
#219=VERTEX_POINT('',#798);
#220=VERTEX_POINT('',#867);
#221=VERTEX_POINT('',#869);
#222=VERTEX_POINT('',#938);
#223=VERTEX_POINT('',#942);
#224=VERTEX_POINT('',#944);
#225=VERTEX_POINT('',#948);
#226=VERTEX_POINT('',#950);
#227=VERTEX_POINT('',#954);
#228=VERTEX_POINT('',#956);
#229=VERTEX_POINT('',#960);
#230=VERTEX_POINT('',#961);
#231=VERTEX_POINT('',#963);
#232=VERTEX_POINT('',#965);
#233=VERTEX_POINT('',#969);
#234=VERTEX_POINT('',#971);
#235=VERTEX_POINT('',#975);
#236=VERTEX_POINT('',#977);
#237=VERTEX_POINT('',#981);
#238=VERTEX_POINT('',#985);
#239=VERTEX_POINT('',#989);
#240=VERTEX_POINT('',#994);
#241=VERTEX_POINT('',#995);
#242=VERTEX_POINT('',#1000);
#243=VERTEX_POINT('',#1002);
#244=VERTEX_POINT('',#1006);
#245=VERTEX_POINT('',#1007);
#246=VERTEX_POINT('',#1009);
#247=VERTEX_POINT('',#1011);
#248=VERTEX_POINT('',#1017);
#249=VERTEX_POINT('',#1018);
#250=VERTEX_POINT('',#1023);
#251=VERTEX_POINT('',#1026);
#252=EDGE_CURVE('',#214,#214,#194,.T.);
#253=EDGE_CURVE('',#214,#215,#124,.T.);
#254=EDGE_CURVE('',#215,#215,#120,.T.);
#255=EDGE_CURVE('',#216,#216,#195,.T.);
#256=EDGE_CURVE('',#216,#217,#125,.T.);
#257=EDGE_CURVE('',#217,#217,#121,.T.);
#258=EDGE_CURVE('',#218,#218,#196,.T.);
#259=EDGE_CURVE('',#218,#219,#126,.T.);
#260=EDGE_CURVE('',#219,#219,#122,.T.);
#261=EDGE_CURVE('',#220,#220,#197,.T.);
#262=EDGE_CURVE('',#220,#221,#127,.T.);
#263=EDGE_CURVE('',#221,#221,#123,.T.);
#264=EDGE_CURVE('',#221,#222,#128,.T.);
#265=EDGE_CURVE('',#222,#222,#198,.T.);
#266=EDGE_CURVE('',#223,#223,#199,.T.);
#267=EDGE_CURVE('',#223,#224,#129,.T.);
#268=EDGE_CURVE('',#224,#224,#200,.T.);
#269=EDGE_CURVE('',#225,#225,#201,.T.);
#270=EDGE_CURVE('',#225,#226,#130,.T.);
#271=EDGE_CURVE('',#226,#226,#202,.T.);
#272=EDGE_CURVE('',#227,#227,#203,.T.);
#273=EDGE_CURVE('',#227,#228,#131,.T.);
#274=EDGE_CURVE('',#228,#228,#204,.T.);
#275=EDGE_CURVE('',#229,#230,#132,.T.);
#276=EDGE_CURVE('',#231,#229,#205,.T.);
#277=EDGE_CURVE('',#232,#231,#133,.T.);
#278=EDGE_CURVE('',#230,#232,#206,.T.);
#279=EDGE_CURVE('',#233,#233,#207,.T.);
#280=EDGE_CURVE('',#233,#234,#134,.T.);
#281=EDGE_CURVE('',#234,#234,#208,.T.);
#282=EDGE_CURVE('',#235,#235,#209,.T.);
#283=EDGE_CURVE('',#235,#236,#135,.T.);
#284=EDGE_CURVE('',#236,#236,#210,.T.);
#285=EDGE_CURVE('',#217,#237,#136,.T.);
#286=EDGE_CURVE('',#237,#237,#211,.T.);
#287=EDGE_CURVE('',#215,#238,#137,.T.);
#288=EDGE_CURVE('',#238,#238,#212,.T.);
#289=EDGE_CURVE('',#219,#239,#138,.T.);
#290=EDGE_CURVE('',#239,#239,#213,.T.);
#291=EDGE_CURVE('',#240,#241,#139,.T.);
#292=EDGE_CURVE('',#229,#240,#140,.T.);
#293=EDGE_CURVE('',#241,#230,#141,.T.);
#294=EDGE_CURVE('',#242,#231,#142,.T.);
#295=EDGE_CURVE('',#243,#242,#143,.T.);
#296=EDGE_CURVE('',#232,#243,#144,.T.);
#297=EDGE_CURVE('',#244,#245,#145,.T.);
#298=EDGE_CURVE('',#246,#244,#146,.T.);
#299=EDGE_CURVE('',#247,#246,#147,.T.);
#300=EDGE_CURVE('',#245,#247,#148,.T.);
#301=EDGE_CURVE('',#242,#240,#149,.T.);
#302=EDGE_CURVE('',#248,#249,#150,.T.);
#303=EDGE_CURVE('',#246,#248,#151,.T.);
#304=EDGE_CURVE('',#249,#244,#152,.T.);
#305=EDGE_CURVE('',#241,#250,#153,.T.);
#306=EDGE_CURVE('',#248,#243,#154,.T.);
#307=EDGE_CURVE('',#251,#249,#155,.T.);
#308=EDGE_CURVE('',#250,#251,#156,.T.);
#309=EDGE_CURVE('',#251,#245,#157,.T.);
#310=EDGE_CURVE('',#247,#250,#158,.T.);
#311=ORIENTED_EDGE('',*,*,#252,.F.);
#312=ORIENTED_EDGE('',*,*,#253,.T.);
#313=ORIENTED_EDGE('',*,*,#254,.F.);
#314=ORIENTED_EDGE('',*,*,#253,.F.);
#315=ORIENTED_EDGE('',*,*,#255,.F.);
#316=ORIENTED_EDGE('',*,*,#256,.T.);
#317=ORIENTED_EDGE('',*,*,#257,.F.);
#318=ORIENTED_EDGE('',*,*,#256,.F.);
#319=ORIENTED_EDGE('',*,*,#258,.F.);
#320=ORIENTED_EDGE('',*,*,#259,.T.);
#321=ORIENTED_EDGE('',*,*,#260,.F.);
#322=ORIENTED_EDGE('',*,*,#259,.F.);
#323=ORIENTED_EDGE('',*,*,#261,.F.);
#324=ORIENTED_EDGE('',*,*,#262,.T.);
#325=ORIENTED_EDGE('',*,*,#263,.F.);
#326=ORIENTED_EDGE('',*,*,#262,.F.);
#327=ORIENTED_EDGE('',*,*,#263,.T.);
#328=ORIENTED_EDGE('',*,*,#264,.T.);
#329=ORIENTED_EDGE('',*,*,#265,.F.);
#330=ORIENTED_EDGE('',*,*,#264,.F.);
#331=ORIENTED_EDGE('',*,*,#266,.F.);
#332=ORIENTED_EDGE('',*,*,#267,.T.);
#333=ORIENTED_EDGE('',*,*,#268,.F.);
#334=ORIENTED_EDGE('',*,*,#267,.F.);
#335=ORIENTED_EDGE('',*,*,#269,.F.);
#336=ORIENTED_EDGE('',*,*,#270,.T.);
#337=ORIENTED_EDGE('',*,*,#271,.F.);
#338=ORIENTED_EDGE('',*,*,#270,.F.);
#339=ORIENTED_EDGE('',*,*,#272,.F.);
#340=ORIENTED_EDGE('',*,*,#273,.T.);
#341=ORIENTED_EDGE('',*,*,#274,.F.);
#342=ORIENTED_EDGE('',*,*,#273,.F.);
#343=ORIENTED_EDGE('',*,*,#275,.F.);
#344=ORIENTED_EDGE('',*,*,#276,.F.);
#345=ORIENTED_EDGE('',*,*,#277,.F.);
#346=ORIENTED_EDGE('',*,*,#278,.F.);
#347=ORIENTED_EDGE('',*,*,#279,.F.);
#348=ORIENTED_EDGE('',*,*,#280,.T.);
#349=ORIENTED_EDGE('',*,*,#281,.F.);
#350=ORIENTED_EDGE('',*,*,#280,.F.);
#351=ORIENTED_EDGE('',*,*,#282,.F.);
#352=ORIENTED_EDGE('',*,*,#283,.T.);
#353=ORIENTED_EDGE('',*,*,#284,.F.);
#354=ORIENTED_EDGE('',*,*,#283,.F.);
#355=ORIENTED_EDGE('',*,*,#257,.T.);
#356=ORIENTED_EDGE('',*,*,#285,.T.);
#357=ORIENTED_EDGE('',*,*,#286,.F.);
#358=ORIENTED_EDGE('',*,*,#285,.F.);
#359=ORIENTED_EDGE('',*,*,#254,.T.);
#360=ORIENTED_EDGE('',*,*,#287,.T.);
#361=ORIENTED_EDGE('',*,*,#288,.F.);
#362=ORIENTED_EDGE('',*,*,#287,.F.);
#363=ORIENTED_EDGE('',*,*,#260,.T.);
#364=ORIENTED_EDGE('',*,*,#289,.T.);
#365=ORIENTED_EDGE('',*,*,#290,.F.);
#366=ORIENTED_EDGE('',*,*,#289,.F.);
#367=ORIENTED_EDGE('',*,*,#265,.T.);
#368=ORIENTED_EDGE('',*,*,#291,.F.);
#369=ORIENTED_EDGE('',*,*,#292,.F.);
#370=ORIENTED_EDGE('',*,*,#275,.T.);
#371=ORIENTED_EDGE('',*,*,#293,.F.);
#372=ORIENTED_EDGE('',*,*,#277,.T.);
#373=ORIENTED_EDGE('',*,*,#294,.F.);
#374=ORIENTED_EDGE('',*,*,#295,.F.);
#375=ORIENTED_EDGE('',*,*,#296,.F.);
#376=ORIENTED_EDGE('',*,*,#297,.F.);
#377=ORIENTED_EDGE('',*,*,#298,.F.);
#378=ORIENTED_EDGE('',*,*,#299,.F.);
#379=ORIENTED_EDGE('',*,*,#300,.F.);
#380=ORIENTED_EDGE('',*,*,#282,.T.);
#381=ORIENTED_EDGE('',*,*,#268,.T.);
#382=ORIENTED_EDGE('',*,*,#279,.T.);
#383=ORIENTED_EDGE('',*,*,#272,.T.);
#384=ORIENTED_EDGE('',*,*,#269,.T.);
#385=ORIENTED_EDGE('',*,*,#292,.T.);
#386=ORIENTED_EDGE('',*,*,#301,.F.);
#387=ORIENTED_EDGE('',*,*,#294,.T.);
#388=ORIENTED_EDGE('',*,*,#276,.T.);
#389=ORIENTED_EDGE('',*,*,#284,.T.);
#390=ORIENTED_EDGE('',*,*,#266,.T.);
#391=ORIENTED_EDGE('',*,*,#281,.T.);
#392=ORIENTED_EDGE('',*,*,#274,.T.);
#393=ORIENTED_EDGE('',*,*,#271,.T.);
#394=ORIENTED_EDGE('',*,*,#302,.F.);
#395=ORIENTED_EDGE('',*,*,#303,.F.);
#396=ORIENTED_EDGE('',*,*,#298,.T.);
#397=ORIENTED_EDGE('',*,*,#304,.F.);
#398=ORIENTED_EDGE('',*,*,#305,.F.);
#399=ORIENTED_EDGE('',*,*,#293,.T.);
#400=ORIENTED_EDGE('',*,*,#278,.T.);
#401=ORIENTED_EDGE('',*,*,#296,.T.);
#402=ORIENTED_EDGE('',*,*,#306,.F.);
#403=ORIENTED_EDGE('',*,*,#302,.T.);
#404=ORIENTED_EDGE('',*,*,#307,.F.);
#405=ORIENTED_EDGE('',*,*,#308,.F.);
#406=ORIENTED_EDGE('',*,*,#307,.T.);
#407=ORIENTED_EDGE('',*,*,#304,.T.);
#408=ORIENTED_EDGE('',*,*,#297,.T.);
#409=ORIENTED_EDGE('',*,*,#309,.F.);
#410=ORIENTED_EDGE('',*,*,#310,.F.);
#411=ORIENTED_EDGE('',*,*,#299,.T.);
#412=ORIENTED_EDGE('',*,*,#303,.T.);
#413=ORIENTED_EDGE('',*,*,#306,.T.);
#414=ORIENTED_EDGE('',*,*,#295,.T.);
#415=ORIENTED_EDGE('',*,*,#301,.T.);
#416=ORIENTED_EDGE('',*,*,#291,.T.);
#417=ORIENTED_EDGE('',*,*,#305,.T.);
#418=ORIENTED_EDGE('',*,*,#252,.T.);
#419=ORIENTED_EDGE('',*,*,#261,.T.);
#420=ORIENTED_EDGE('',*,*,#255,.T.);
#421=ORIENTED_EDGE('',*,*,#258,.T.);
#422=ORIENTED_EDGE('',*,*,#286,.T.);
#423=ORIENTED_EDGE('',*,*,#308,.T.);
#424=ORIENTED_EDGE('',*,*,#309,.T.);
#425=ORIENTED_EDGE('',*,*,#300,.T.);
#426=ORIENTED_EDGE('',*,*,#310,.T.);
#427=ORIENTED_EDGE('',*,*,#290,.T.);
#428=ORIENTED_EDGE('',*,*,#288,.T.);
#429=CONICAL_SURFACE('',#474,26.2500192861594,0.785398179909788);
#430=CONICAL_SURFACE('',#476,26.2500313028256,0.785398136153618);
#431=CONICAL_SURFACE('',#478,26.2500226094908,0.785398256221582);
#432=CONICAL_SURFACE('',#480,26.2500336019857,0.785398300009772);
#433=ADVANCED_FACE('',(#52),#429,.F.);
#434=ADVANCED_FACE('',(#53),#430,.F.);
#435=ADVANCED_FACE('',(#54),#431,.F.);
#436=ADVANCED_FACE('',(#55),#432,.F.);
#437=ADVANCED_FACE('',(#56),#42,.F.);
#438=ADVANCED_FACE('',(#57),#43,.F.);
#439=ADVANCED_FACE('',(#58),#44,.F.);
#440=ADVANCED_FACE('',(#59),#45,.F.);
#441=ADVANCED_FACE('',(#60),#46,.F.);
#442=ADVANCED_FACE('',(#61),#47,.F.);
#443=ADVANCED_FACE('',(#62),#48,.F.);
#444=ADVANCED_FACE('',(#63),#49,.F.);
#445=ADVANCED_FACE('',(#64),#50,.F.);
#446=ADVANCED_FACE('',(#65),#51,.F.);
#447=ADVANCED_FACE('',(#66),#29,.T.);
#448=ADVANCED_FACE('',(#67),#30,.T.);
#449=ADVANCED_FACE('',(#68),#31,.T.);
#450=ADVANCED_FACE('',(#69,#15,#16,#17,#18,#19),#32,.T.);
#451=ADVANCED_FACE('',(#70,#20,#21,#22,#23,#24),#33,.F.);
#452=ADVANCED_FACE('',(#71),#34,.F.);
#453=ADVANCED_FACE('',(#72),#35,.F.);
#454=ADVANCED_FACE('',(#73),#36,.F.);
#455=ADVANCED_FACE('',(#74,#25,#26,#27,#28),#37,.T.);
#456=ADVANCED_FACE('',(#75),#38,.T.);
#457=ADVANCED_FACE('',(#76),#39,.F.);
#458=ADVANCED_FACE('',(#77),#40,.T.);
#459=ADVANCED_FACE('',(#78),#41,.T.);
#460=CLOSED_SHELL('',(#433,#434,#435,#436,#437,#438,#439,#440,#441,#442,
#443,#444,#445,#446,#447,#448,#449,#450,#451,#452,#453,#454,#455,#456,#457,
#458,#459));
#461=DERIVED_UNIT_ELEMENT(#463,1.);
#462=DERIVED_UNIT_ELEMENT(#1042,-3.);
#463=(
MASS_UNIT()
NAMED_UNIT(*)
SI_UNIT(.KILO.,.GRAM.)
);
#464=DERIVED_UNIT((#461,#462));
#465=MEASURE_REPRESENTATION_ITEM('density measure',
POSITIVE_RATIO_MEASURE(7850.),#464);
#466=PROPERTY_DEFINITION_REPRESENTATION(#471,#468);
#467=PROPERTY_DEFINITION_REPRESENTATION(#472,#469);
#468=REPRESENTATION('material name',(#470),#1039);
#469=REPRESENTATION('density',(#465),#1039);
#470=DESCRIPTIVE_REPRESENTATION_ITEM('Steel','Steel');
#471=PROPERTY_DEFINITION('material property','material name',#1049);
#472=PROPERTY_DEFINITION('material property','density of part',#1049);
#473=AXIS2_PLACEMENT_3D('',#652,#521,#522);
#474=AXIS2_PLACEMENT_3D('',#653,#523,#524);
#475=AXIS2_PLACEMENT_3D('',#655,#525,#526);
#476=AXIS2_PLACEMENT_3D('',#724,#528,#529);
#477=AXIS2_PLACEMENT_3D('',#726,#530,#531);
#478=AXIS2_PLACEMENT_3D('',#795,#533,#534);
#479=AXIS2_PLACEMENT_3D('',#797,#535,#536);
#480=AXIS2_PLACEMENT_3D('',#866,#538,#539);
#481=AXIS2_PLACEMENT_3D('',#868,#540,#541);
#482=AXIS2_PLACEMENT_3D('',#937,#543,#544);
#483=AXIS2_PLACEMENT_3D('',#940,#546,#547);
#484=AXIS2_PLACEMENT_3D('',#941,#548,#549);
#485=AXIS2_PLACEMENT_3D('',#943,#550,#551);
#486=AXIS2_PLACEMENT_3D('',#946,#553,#554);
#487=AXIS2_PLACEMENT_3D('',#947,#555,#556);
#488=AXIS2_PLACEMENT_3D('',#949,#557,#558);
#489=AXIS2_PLACEMENT_3D('',#952,#560,#561);
#490=AXIS2_PLACEMENT_3D('',#953,#562,#563);
#491=AXIS2_PLACEMENT_3D('',#955,#564,#565);
#492=AXIS2_PLACEMENT_3D('',#958,#567,#568);
#493=AXIS2_PLACEMENT_3D('',#959,#569,#570);
#494=AXIS2_PLACEMENT_3D('',#964,#572,#573);
#495=AXIS2_PLACEMENT_3D('',#967,#575,#576);
#496=AXIS2_PLACEMENT_3D('',#968,#577,#578);
#497=AXIS2_PLACEMENT_3D('',#970,#579,#580);
#498=AXIS2_PLACEMENT_3D('',#973,#582,#583);
#499=AXIS2_PLACEMENT_3D('',#974,#584,#585);
#500=AXIS2_PLACEMENT_3D('',#976,#586,#587);
#501=AXIS2_PLACEMENT_3D('',#979,#589,#590);
#502=AXIS2_PLACEMENT_3D('',#980,#591,#592);
#503=AXIS2_PLACEMENT_3D('',#983,#594,#595);
#504=AXIS2_PLACEMENT_3D('',#984,#596,#597);
#505=AXIS2_PLACEMENT_3D('',#987,#599,#600);
#506=AXIS2_PLACEMENT_3D('',#988,#601,#602);
#507=AXIS2_PLACEMENT_3D('',#991,#604,#605);
#508=AXIS2_PLACEMENT_3D('',#992,#606,#607);
#509=AXIS2_PLACEMENT_3D('',#993,#608,#609);
#510=AXIS2_PLACEMENT_3D('',#999,#613,#614);
#511=AXIS2_PLACEMENT_3D('',#1005,#618,#619);
#512=AXIS2_PLACEMENT_3D('',#1014,#624,#625);
#513=AXIS2_PLACEMENT_3D('',#1016,#627,#628);
#514=AXIS2_PLACEMENT_3D('',#1022,#632,#633);
#515=AXIS2_PLACEMENT_3D('',#1029,#638,#639);
#516=AXIS2_PLACEMENT_3D('',#1031,#641,#642);
#517=AXIS2_PLACEMENT_3D('',#1033,#644,#645);
#518=AXIS2_PLACEMENT_3D('',#1034,#646,#647);
#519=AXIS2_PLACEMENT_3D('',#1035,#648,#649);
#520=AXIS2_PLACEMENT_3D('',#1036,#650,#651);
#521=DIRECTION('axis',(0.,0.,1.));
#522=DIRECTION('refdir',(1.,0.,0.));
#523=DIRECTION('center_axis',(-8.82365153804953E-8,5.70863110010083E-8,
0.999999999999995));
#524=DIRECTION('ref_axis',(0.999999999999996,0.,8.82365153804954E-8));
#525=DIRECTION('center_axis',(0.,0.,-1.));
#526=DIRECTION('ref_axis',(0.999999999999998,-5.70863179203578E-8,0.));
#527=DIRECTION('',(0.70710685525517,-4.03661170417937E-8,-0.707106707117916));
#528=DIRECTION('center_axis',(4.35908152860602E-7,5.44892457602543E-8,0.999999999999904));
#529=DIRECTION('ref_axis',(0.999999999999905,0.,-4.35908152860603E-7));
#530=DIRECTION('center_axis',(0.,0.,-1.));
#531=DIRECTION('ref_axis',(0.999999999999999,-5.4489219279306E-8,0.));
#532=DIRECTION('',(0.707106453688563,-3.85297163151088E-8,-0.707107108684379));
#533=DIRECTION('center_axis',(4.35907661472902E-7,-2.94641323766557E-7,
0.999999999999862));
#534=DIRECTION('ref_axis',(0.999999999999905,0.,-4.35907661472921E-7));
#535=DIRECTION('center_axis',(0.,0.,-1.));
#536=DIRECTION('ref_axis',(0.999999999999957,2.9464125100369E-7,0.));
#537=DIRECTION('',(0.707106538589817,2.0834285862727E-7,-0.707107023783164));
#538=DIRECTION('center_axis',(-8.84097582633761E-8,-2.94621927659255E-7,
0.999999999999953));
#539=DIRECTION('ref_axis',(0.999999999999996,0.,8.84097582633799E-8));
#540=DIRECTION('center_axis',(0.,0.,-1.));
#541=DIRECTION('ref_axis',(0.999999999999957,2.94622036012412E-7,0.));
#542=DIRECTION('',(0.707106940301169,2.08329134387183E-7,-0.707106622071859));
#543=DIRECTION('center_axis',(-8.35809016096112E-19,2.92974636975809E-17,
-1.));
#544=DIRECTION('ref_axis',(1.,0.,-8.35809016096112E-19));
#545=DIRECTION('',(-8.35809016096112E-19,2.92974636975809E-17,-1.));
#546=DIRECTION('center_axis',(0.,0.,1.));
#547=DIRECTION('ref_axis',(1.,0.,-8.35809016096112E-19));
#548=DIRECTION('center_axis',(1.,-2.05236521033545E-9,-1.03257610972944E-9));
#549=DIRECTION('ref_axis',(-2.05236521033545E-9,-1.,0.));
#550=DIRECTION('center_axis',(1.,0.,0.));
#551=DIRECTION('ref_axis',(0.,-1.,-2.11922328463223E-18));
#552=DIRECTION('',(1.,-2.05236521033545E-9,-1.03257610972944E-9));
#553=DIRECTION('center_axis',(-1.,0.,0.));
#554=DIRECTION('ref_axis',(0.,-1.,-2.11922328463223E-18));
#555=DIRECTION('center_axis',(-1.,-4.92416496715118E-17,3.69153303903449E-16));
#556=DIRECTION('ref_axis',(-4.92416496715118E-17,1.,0.));
#557=DIRECTION('center_axis',(-1.,0.,0.));
#558=DIRECTION('ref_axis',(-4.92416496715118E-17,1.,0.));
#559=DIRECTION('',(-1.,-4.92416496715118E-17,3.69153303903449E-16));
#560=DIRECTION('center_axis',(1.,0.,0.));
#561=DIRECTION('ref_axis',(-4.92416496715118E-17,1.,0.));
#562=DIRECTION('center_axis',(-1.,2.04753827585978E-15,1.59886965721039E-14));
#563=DIRECTION('ref_axis',(2.04753827585978E-15,1.,0.));
#564=DIRECTION('center_axis',(-1.,0.,0.));
#565=DIRECTION('ref_axis',(2.04753827585978E-15,1.,0.));
#566=DIRECTION('',(-1.,2.04753827585978E-15,1.59886965721039E-14));
#567=DIRECTION('center_axis',(1.,0.,0.));
#568=DIRECTION('ref_axis',(2.04753827585978E-15,1.,0.));
#569=DIRECTION('center_axis',(-1.,0.,-7.29192172033318E-11));
#570=DIRECTION('ref_axis',(0.,1.,0.));
#571=DIRECTION('',(-1.,0.,-7.29192172033318E-11));
#572=DIRECTION('center_axis',(-1.,0.,0.));
#573=DIRECTION('ref_axis',(0.,1.,0.));
#574=DIRECTION('',(1.,0.,7.29192172033318E-11));
#575=DIRECTION('center_axis',(1.,0.,0.));
#576=DIRECTION('ref_axis',(0.,1.,0.));
#577=DIRECTION('center_axis',(-1.,8.22301531479719E-19,2.16283608597537E-18));
#578=DIRECTION('ref_axis',(8.22301531479719E-19,1.,0.));
#579=DIRECTION('center_axis',(-1.,0.,0.));
#580=DIRECTION('ref_axis',(8.22301531479719E-19,1.,0.));
#581=DIRECTION('',(-1.,8.22301531479719E-19,2.16283608597537E-18));
#582=DIRECTION('center_axis',(1.,0.,0.));
#583=DIRECTION('ref_axis',(8.22301531479719E-19,1.,0.));
#584=DIRECTION('center_axis',(-1.,-2.49836424302705E-19,6.11176147579353E-18));
#585=DIRECTION('ref_axis',(-2.49836424302705E-19,1.,0.));
#586=DIRECTION('center_axis',(-1.,0.,0.));
#587=DIRECTION('ref_axis',(-2.49836424302705E-19,1.,0.));
#588=DIRECTION('',(-1.,-2.49836424302705E-19,6.11176147579353E-18));
#589=DIRECTION('center_axis',(1.,0.,0.));
#590=DIRECTION('ref_axis',(-2.49836424302705E-19,1.,0.));
#591=DIRECTION('center_axis',(1.9788639282071E-17,1.11479239049636E-17,
-1.));
#592=DIRECTION('ref_axis',(1.,0.,1.9788639282071E-17));
#593=DIRECTION('',(1.9788639282071E-17,1.11479239049636E-17,-1.));
#594=DIRECTION('center_axis',(0.,0.,1.));
#595=DIRECTION('ref_axis',(1.,0.,1.9788639282071E-17));
#596=DIRECTION('center_axis',(4.80482957338555E-17,7.93095342485474E-17,
-1.));
#597=DIRECTION('ref_axis',(1.,0.,4.80482957338555E-17));
#598=DIRECTION('',(4.80482957338555E-17,7.93095342485474E-17,-1.));
#599=DIRECTION('center_axis',(0.,0.,1.));
#600=DIRECTION('ref_axis',(1.,0.,4.80482957338555E-17));
#601=DIRECTION('center_axis',(-1.10930610056886E-18,4.30163806531258E-18,
-1.));
#602=DIRECTION('ref_axis',(1.,0.,-1.10930610056886E-18));
#603=DIRECTION('',(-1.10930610056886E-18,4.30163806531258E-18,-1.));
#604=DIRECTION('center_axis',(0.,0.,1.));
#605=DIRECTION('ref_axis',(1.,0.,-1.10930610056886E-18));
#606=DIRECTION('center_axis',(0.,0.,1.));
#607=DIRECTION('ref_axis',(1.,0.,0.));
#608=DIRECTION('center_axis',(0.,1.,0.));
#609=DIRECTION('ref_axis',(0.,0.,1.));
#610=DIRECTION('',(-1.,0.,0.));
#611=DIRECTION('',(0.,0.,1.));
#612=DIRECTION('',(0.,0.,-1.));
#613=DIRECTION('center_axis',(0.,-1.,0.));
#614=DIRECTION('ref_axis',(0.,0.,-1.));
#615=DIRECTION('',(0.,0.,-1.));
#616=DIRECTION('',(1.,0.,0.));
#617=DIRECTION('',(0.,0.,1.));
#618=DIRECTION('center_axis',(1.,0.,0.));
#619=DIRECTION('ref_axis',(0.,0.,-1.));
#620=DIRECTION('',(0.,-1.,0.));
#621=DIRECTION('',(0.,0.,-1.));
#622=DIRECTION('',(0.,1.,0.));
#623=DIRECTION('',(0.,-4.37886162198716E-16,1.));
#624=DIRECTION('center_axis',(1.,0.,0.));
#625=DIRECTION('ref_axis',(0.,0.,-1.));
#626=DIRECTION('',(0.,-1.,0.));
#627=DIRECTION('center_axis',(0.,-1.,0.));
#628=DIRECTION('ref_axis',(0.,0.,-1.));
#629=DIRECTION('',(0.,0.,-1.));
#630=DIRECTION('',(-1.,0.,0.));
#631=DIRECTION('',(1.,0.,0.));
#632=DIRECTION('center_axis',(1.,0.,0.));
#633=DIRECTION('ref_axis',(0.,0.,-1.));
#634=DIRECTION('',(0.,-1.,0.));
#635=DIRECTION('',(0.,-1.,0.));
#636=DIRECTION('',(0.,1.,0.));
#637=DIRECTION('',(0.,4.37886162198716E-16,-1.));
#638=DIRECTION('center_axis',(0.,0.,1.));
#639=DIRECTION('ref_axis',(1.,0.,0.));
#640=DIRECTION('',(1.,-1.71242782621327E-16,0.));
#641=DIRECTION('center_axis',(0.,0.,1.));
#642=DIRECTION('ref_axis',(1.,0.,0.));
#643=DIRECTION('',(-1.,1.71242782621327E-16,0.));
#644=DIRECTION('center_axis',(0.,0.,1.));
#645=DIRECTION('ref_axis',(1.,0.,0.));
#646=DIRECTION('center_axis',(1.71242782621327E-16,1.,4.37886162198716E-16));
#647=DIRECTION('ref_axis',(0.,-4.37886162198716E-16,1.));
#648=DIRECTION('center_axis',(0.,0.,1.));
#649=DIRECTION('ref_axis',(1.,0.,0.));
#650=DIRECTION('center_axis',(0.,0.,1.));
#651=DIRECTION('ref_axis',(1.,0.,0.));
#652=CARTESIAN_POINT('',(0.,0.,0.));
#653=CARTESIAN_POINT('Origin',(100.00000149621,39.9999988231415,280.000019220014));
#654=CARTESIAN_POINT('',(73.7499991138579,40.,280.));
#655=CARTESIAN_POINT('Origin',(99.9999991800028,40.0000003216561,280.));
#656=CARTESIAN_POINT('',(78.7500001623956,40.,274.999999998951));
#657=CARTESIAN_POINT('',(73.7499822100504,39.9999988231415,280.000016903804));
#658=CARTESIAN_POINT('Ctrl Pts',(121.249999964354,39.9999997652122,275.000000000965));
#659=CARTESIAN_POINT('Ctrl Pts',(121.249999964354,41.3340984794431,275.00000000187));
#660=CARTESIAN_POINT('Ctrl Pts',(121.122342237466,42.7137666310004,275.0000000028));
#661=CARTESIAN_POINT('Ctrl Pts',(120.584584816254,45.4582723924035,275.000000004637));
#662=CARTESIAN_POINT('Ctrl Pts',(120.174600084703,46.8231325267612,275.000000005543));
#663=CARTESIAN_POINT('Ctrl Pts',(119.09027999081,49.4409128033923,275.000000007269));
#664=CARTESIAN_POINT('Ctrl Pts',(118.415081118297,50.6959176436307,275.000000008088));
#665=CARTESIAN_POINT('Ctrl Pts',(116.854674402575,53.0168281976962,275.000000009589));
#666=CARTESIAN_POINT('Ctrl Pts',(115.969369341176,54.0826685478032,275.00000001027));
#667=CARTESIAN_POINT('Ctrl Pts',(114.082668845966,55.969369043013,275.000000011461));
#668=CARTESIAN_POINT('Ctrl Pts',(113.016828495859,56.8546741044127,275.000000012011));
#669=CARTESIAN_POINT('Ctrl Pts',(110.695917941793,58.4150808201345,275.00000001296));
#670=CARTESIAN_POINT('Ctrl Pts',(109.440913101555,59.0902796926471,275.000000013359));
#671=CARTESIAN_POINT('Ctrl Pts',(106.823132824924,60.1745997865405,275.000000013971));
#672=CARTESIAN_POINT('Ctrl Pts',(105.458272690566,60.5845845180918,275.000000014184));
#673=CARTESIAN_POINT('Ctrl Pts',(102.713766929163,61.1223419393031,275.000000014419));
#674=CARTESIAN_POINT('Ctrl Pts',(101.334098777606,61.2499996661915,275.00000001444));
#675=CARTESIAN_POINT('Ctrl Pts',(98.6659013491439,61.2499996661915,275.000000014314));
#676=CARTESIAN_POINT('Ctrl Pts',(97.2862331975866,61.1223419393031,275.000000014162));
#677=CARTESIAN_POINT('Ctrl Pts',(94.5417274361835,60.5845845180918,275.000000013667));
#678=CARTESIAN_POINT('Ctrl Pts',(93.1768673018258,60.1745997865405,275.000000013324));
#679=CARTESIAN_POINT('Ctrl Pts',(90.5590870251947,59.0902796926471,275.000000012464));
#680=CARTESIAN_POINT('Ctrl Pts',(89.3040821849564,58.4150808201345,275.000000011946));
#681=CARTESIAN_POINT('Ctrl Pts',(86.9831716308908,56.8546741044127,275.000000010778));
#682=CARTESIAN_POINT('Ctrl Pts',(85.9173312807839,55.969369043013,275.000000010127));
#683=CARTESIAN_POINT('Ctrl Pts',(84.030630785574,54.0826685478032,275.000000008757));
#684=CARTESIAN_POINT('Ctrl Pts',(83.1453257241743,53.0168281976962,275.000000007992));
#685=CARTESIAN_POINT('Ctrl Pts',(81.5849190084525,50.6959176436307,275.000000006343));
#686=CARTESIAN_POINT('Ctrl Pts',(80.9097201359399,49.4409128033923,275.000000005459));
#687=CARTESIAN_POINT('Ctrl Pts',(79.8254000420465,46.8231325267612,275.000000003632));
#688=CARTESIAN_POINT('Ctrl Pts',(79.4154153104952,45.4582723924035,275.000000002686));
#689=CARTESIAN_POINT('Ctrl Pts',(78.8776578892839,42.7137666310004,275.000000000798));
#690=CARTESIAN_POINT('Ctrl Pts',(78.7500001623956,41.3340984794431,274.999999999856));
#691=CARTESIAN_POINT('Ctrl Pts',(78.7500001623956,38.6659010509813,274.999999998046));
#692=CARTESIAN_POINT('Ctrl Pts',(78.8776578892839,37.286232899424,274.999999997116));
#693=CARTESIAN_POINT('Ctrl Pts',(79.4154153104952,34.5417271380209,274.999999995279));
#694=CARTESIAN_POINT('Ctrl Pts',(79.8254000420465,33.1768670036631,274.999999994372));
#695=CARTESIAN_POINT('Ctrl Pts',(80.9097201359399,30.5590867270321,274.999999992647));
#696=CARTESIAN_POINT('Ctrl Pts',(81.5849190084526,29.3040818867937,274.999999991828));
#697=CARTESIAN_POINT('Ctrl Pts',(83.1453257241743,26.9831713327281,274.999999990327));
#698=CARTESIAN_POINT('Ctrl Pts',(84.030630785574,25.9173309826212,274.999999989645));
#699=CARTESIAN_POINT('Ctrl Pts',(85.9173312807839,24.0306304874114,274.999999988455));
#700=CARTESIAN_POINT('Ctrl Pts',(86.9831716308908,23.1453254260117,274.999999987904));
#701=CARTESIAN_POINT('Ctrl Pts',(89.3040821849564,21.5849187102899,274.999999986956));
#702=CARTESIAN_POINT('Ctrl Pts',(90.5590870251947,20.9097198377773,274.999999986557));
#703=CARTESIAN_POINT('Ctrl Pts',(93.1768673018258,19.8253997438839,274.999999985945));
#704=CARTESIAN_POINT('Ctrl Pts',(94.5417274361835,19.4154150123326,274.999999985732));
#705=CARTESIAN_POINT('Ctrl Pts',(97.2862331975866,18.8776575911213,274.999999985497));
#706=CARTESIAN_POINT('Ctrl Pts',(98.6659013491439,18.7499998642329,274.999999985475));
#707=CARTESIAN_POINT('Ctrl Pts',(101.334098777606,18.7499998642329,274.999999985602));
#708=CARTESIAN_POINT('Ctrl Pts',(102.713766929163,18.8776575911213,274.999999985754));
#709=CARTESIAN_POINT('Ctrl Pts',(105.458272690566,19.4154150123326,274.999999986249));
#710=CARTESIAN_POINT('Ctrl Pts',(106.823132824924,19.8253997438839,274.999999986592));
#711=CARTESIAN_POINT('Ctrl Pts',(109.440913101555,20.9097198377773,274.999999987451));
#712=CARTESIAN_POINT('Ctrl Pts',(110.695917941793,21.5849187102899,274.999999987969));
#713=CARTESIAN_POINT('Ctrl Pts',(113.016828495859,23.1453254260117,274.999999989138));
#714=CARTESIAN_POINT('Ctrl Pts',(114.082668845966,24.0306304874113,274.999999989789));
#715=CARTESIAN_POINT('Ctrl Pts',(115.969369341176,25.9173309826212,274.999999991159));
#716=CARTESIAN_POINT('Ctrl Pts',(116.854674402575,26.9831713327281,274.999999991924));
#717=CARTESIAN_POINT('Ctrl Pts',(118.415081118297,29.3040818867937,274.999999993572));
#718=CARTESIAN_POINT('Ctrl Pts',(119.09027999081,30.5590867270321,274.999999994456));
#719=CARTESIAN_POINT('Ctrl Pts',(120.174600084703,33.1768670036631,274.999999996284));
#720=CARTESIAN_POINT('Ctrl Pts',(120.584584816254,34.5417271380208,274.999999997229));
#721=CARTESIAN_POINT('Ctrl Pts',(121.122342237466,37.286232899424,274.999999999117));
#722=CARTESIAN_POINT('Ctrl Pts',(121.249999964354,38.6659010509813,275.000000000059));
#723=CARTESIAN_POINT('Ctrl Pts',(121.249999964354,39.9999997652122,275.000000000965));
#724=CARTESIAN_POINT('Origin',(429.999993524225,39.9999988797639,280.000031407165));
#725=CARTESIAN_POINT('',(403.75000507113,40.0000000000001,280.));
#726=CARTESIAN_POINT('Origin',(430.0000049668,40.0000003101048,280.));
#727=CARTESIAN_POINT('',(408.750000439586,40.,275.000000000026));
#728=CARTESIAN_POINT('',(403.749962221402,39.9999988797639,280.000042849767));
#729=CARTESIAN_POINT('Ctrl Pts',(451.25000077585,39.9999997652122,275.000000000024));
#730=CARTESIAN_POINT('Ctrl Pts',(451.25000077585,41.3340984962153,275.000000000024));
#731=CARTESIAN_POINT('Ctrl Pts',(451.122343047356,42.7137666651176,275.000000000024));
#732=CARTESIAN_POINT('Ctrl Pts',(450.584585619384,45.4582724610244,275.000000000024));
#733=CARTESIAN_POINT('Ctrl Pts',(450.174600882679,46.8231326125409,275.000000000025));
#734=CARTESIAN_POINT('Ctrl Pts',(449.090280775154,49.4409129220824,275.000000000025));
#735=CARTESIAN_POINT('Ctrl Pts',(448.415081894152,50.6959177780985,275.000000000025));
#736=CARTESIAN_POINT('Ctrl Pts',(446.854675158813,53.0168283613424,275.000000000026));
#737=CARTESIAN_POINT('Ctrl Pts',(445.969370086284,54.0826687248489,275.000000000026));
#738=CARTESIAN_POINT('Ctrl Pts',(444.082669567354,55.9693692437782,275.000000000026));
#739=CARTESIAN_POINT('Ctrl Pts',(443.016829203848,56.8546743163078,275.000000000027));
#740=CARTESIAN_POINT('Ctrl Pts',(440.695918620604,58.4150810516468,275.000000000027));
#741=CARTESIAN_POINT('Ctrl Pts',(439.440913764588,59.090279932648,275.000000000028));
#742=CARTESIAN_POINT('Ctrl Pts',(436.823133455046,60.1746000401733,275.000000000028));
#743=CARTESIAN_POINT('Ctrl Pts',(435.45827330353,60.5845847768789,275.000000000028));
#744=CARTESIAN_POINT('Ctrl Pts',(432.713767507623,61.1223422048509,275.000000000029));
#745=CARTESIAN_POINT('Ctrl Pts',(431.334099338721,61.2499999333441,275.000000000029));
#746=CARTESIAN_POINT('Ctrl Pts',(428.665901876715,61.2499999333441,275.000000000029));
#747=CARTESIAN_POINT('Ctrl Pts',(427.286233707812,61.1223422048509,275.000000000029));
#748=CARTESIAN_POINT('Ctrl Pts',(424.541727911906,60.5845847768789,275.000000000029));
#749=CARTESIAN_POINT('Ctrl Pts',(423.176867760389,60.1746000401733,275.000000000029));
#750=CARTESIAN_POINT('Ctrl Pts',(420.559087450848,59.090279932648,275.000000000029));
#751=CARTESIAN_POINT('Ctrl Pts',(419.304082594831,58.4150810516469,275.000000000029));
#752=CARTESIAN_POINT('Ctrl Pts',(416.983172011587,56.8546743163078,275.000000000029));
#753=CARTESIAN_POINT('Ctrl Pts',(415.917331648081,55.9693692437782,275.000000000028));
#754=CARTESIAN_POINT('Ctrl Pts',(414.030631129152,54.0826687248489,275.000000000028));
#755=CARTESIAN_POINT('Ctrl Pts',(413.145326056622,53.0168283613424,275.000000000028));
#756=CARTESIAN_POINT('Ctrl Pts',(411.584919321283,50.6959177780985,275.000000000027));
#757=CARTESIAN_POINT('Ctrl Pts',(410.909720440282,49.4409129220824,275.000000000027));
#758=CARTESIAN_POINT('Ctrl Pts',(409.825400332757,46.8231326125409,275.000000000027));
#759=CARTESIAN_POINT('Ctrl Pts',(409.415415596051,45.4582724610244,275.000000000026));
#760=CARTESIAN_POINT('Ctrl Pts',(408.877658168079,42.7137666651177,275.000000000026));
#761=CARTESIAN_POINT('Ctrl Pts',(408.750000439586,41.3340984962153,275.000000000026));
#762=CARTESIAN_POINT('Ctrl Pts',(408.750000439586,38.6659010342092,275.000000000026));
#763=CARTESIAN_POINT('Ctrl Pts',(408.877658168079,37.2862328653069,275.000000000026));
#764=CARTESIAN_POINT('Ctrl Pts',(409.415415596051,34.5417270694001,275.000000000026));
#765=CARTESIAN_POINT('Ctrl Pts',(409.825400332757,33.1768669178836,275.000000000026));
#766=CARTESIAN_POINT('Ctrl Pts',(410.909720440282,30.5590866083421,275.000000000026));
#767=CARTESIAN_POINT('Ctrl Pts',(411.584919321283,29.3040817523259,275.000000000027));
#768=CARTESIAN_POINT('Ctrl Pts',(413.145326056622,26.9831711690821,275.000000000027));
#769=CARTESIAN_POINT('Ctrl Pts',(414.030631129152,25.9173308055756,275.000000000027));
#770=CARTESIAN_POINT('Ctrl Pts',(415.917331648081,24.0306302866463,275.000000000028));
#771=CARTESIAN_POINT('Ctrl Pts',(416.983172011587,23.1453252141167,275.000000000028));
#772=CARTESIAN_POINT('Ctrl Pts',(419.304082594831,21.5849184787776,275.000000000028));
#773=CARTESIAN_POINT('Ctrl Pts',(420.559087450848,20.9097195977765,275.000000000029));
#774=CARTESIAN_POINT('Ctrl Pts',(423.176867760389,19.8253994902512,275.000000000029));
#775=CARTESIAN_POINT('Ctrl Pts',(424.541727911906,19.4154147535456,275.000000000029));
#776=CARTESIAN_POINT('Ctrl Pts',(427.286233707812,18.8776573255736,275.000000000029));
#777=CARTESIAN_POINT('Ctrl Pts',(428.665901876715,18.7499995970804,275.000000000029));
#778=CARTESIAN_POINT('Ctrl Pts',(431.334099338721,18.7499995970804,275.000000000029));
#779=CARTESIAN_POINT('Ctrl Pts',(432.713767507623,18.8776573255737,275.000000000029));
#780=CARTESIAN_POINT('Ctrl Pts',(435.45827330353,19.4154147535456,275.000000000029));
#781=CARTESIAN_POINT('Ctrl Pts',(436.823133455046,19.8253994902512,275.000000000029));
#782=CARTESIAN_POINT('Ctrl Pts',(439.440913764588,20.9097195977765,275.000000000029));
#783=CARTESIAN_POINT('Ctrl Pts',(440.695918620604,21.5849184787776,275.000000000028));
#784=CARTESIAN_POINT('Ctrl Pts',(443.016829203848,23.1453252141167,275.000000000028));
#785=CARTESIAN_POINT('Ctrl Pts',(444.082669567354,24.0306302866463,275.000000000028));
#786=CARTESIAN_POINT('Ctrl Pts',(445.969370086284,25.9173308055756,275.000000000027));
#787=CARTESIAN_POINT('Ctrl Pts',(446.854675158813,26.983171169082,275.000000000027));
#788=CARTESIAN_POINT('Ctrl Pts',(448.415081894152,29.3040817523259,275.000000000026));
#789=CARTESIAN_POINT('Ctrl Pts',(449.090280775154,30.5590866083421,275.000000000026));
#790=CARTESIAN_POINT('Ctrl Pts',(450.174600882679,33.1768669178835,275.000000000025));
#791=CARTESIAN_POINT('Ctrl Pts',(450.584585619384,34.5417270694001,275.000000000025));
#792=CARTESIAN_POINT('Ctrl Pts',(451.122343047356,37.2862328653068,275.000000000025));
#793=CARTESIAN_POINT('Ctrl Pts',(451.25000077585,38.6659010342092,275.000000000025));
#794=CARTESIAN_POINT('Ctrl Pts',(451.25000077585,39.9999997652122,275.000000000025));
#795=CARTESIAN_POINT('Origin',(429.99999352423,370.000008125841,280.000021592868));
#796=CARTESIAN_POINT('',(403.750003950172,370.,280.));
#797=CARTESIAN_POINT('Origin',(430.000004966799,370.000000391511,280.));
#798=CARTESIAN_POINT('',(408.750000519292,370.,275.000000000046));
#799=CARTESIAN_POINT('',(403.749970914741,370.000008125841,280.000033035454));
#800=CARTESIAN_POINT('Ctrl Pts',(451.250000696144,370.000003337929,275.000000000039));
#801=CARTESIAN_POINT('Ctrl Pts',(451.250000696144,371.334102063928,275.00000000004));
#802=CARTESIAN_POINT('Ctrl Pts',(451.12234296813,372.713770227655,275.00000000004));
#803=CARTESIAN_POINT('Ctrl Pts',(450.584585542175,375.458276013268,275.000000000042));
#804=CARTESIAN_POINT('Ctrl Pts',(450.174600807007,376.823136159665,275.000000000043));
#805=CARTESIAN_POINT('Ctrl Pts',(449.090280703549,379.440916459387,275.000000000044));
#806=CARTESIAN_POINT('Ctrl Pts',(448.415081825081,380.695921310696,275.000000000045));
#807=CARTESIAN_POINT('Ctrl Pts',(446.854675095594,383.016831885235,275.000000000046));
#808=CARTESIAN_POINT('Ctrl Pts',(445.969370026385,384.082672244743,275.000000000046));
#809=CARTESIAN_POINT('Ctrl Pts',(444.082669514533,385.969372756596,275.000000000047));
#810=CARTESIAN_POINT('Ctrl Pts',(443.016829155024,386.854677825805,275.000000000048));
#811=CARTESIAN_POINT('Ctrl Pts',(440.695918580486,388.415084555291,275.000000000048));
#812=CARTESIAN_POINT('Ctrl Pts',(439.440913729177,389.09028343376,275.000000000049));
#813=CARTESIAN_POINT('Ctrl Pts',(436.823133429454,390.174603537218,275.000000000049));
#814=CARTESIAN_POINT('Ctrl Pts',(435.458273283057,390.584588272386,275.000000000049));
#815=CARTESIAN_POINT('Ctrl Pts',(432.713767497445,391.12234569834,275.000000000049));
#816=CARTESIAN_POINT('Ctrl Pts',(431.334099333717,391.250003426355,275.000000000049));
#817=CARTESIAN_POINT('Ctrl Pts',(428.665901881719,391.250003426355,275.000000000049));
#818=CARTESIAN_POINT('Ctrl Pts',(427.286233717992,391.12234569834,275.000000000049));
#819=CARTESIAN_POINT('Ctrl Pts',(424.541727932379,390.584588272386,275.000000000048));
#820=CARTESIAN_POINT('Ctrl Pts',(423.176867785982,390.174603537218,275.000000000048));
#821=CARTESIAN_POINT('Ctrl Pts',(420.559087486259,389.09028343376,275.000000000048));
#822=CARTESIAN_POINT('Ctrl Pts',(419.30408263495,388.415084555291,275.000000000047));
#823=CARTESIAN_POINT('Ctrl Pts',(416.983172060412,386.854677825805,275.000000000047));
#824=CARTESIAN_POINT('Ctrl Pts',(415.917331700904,385.969372756596,275.000000000047));
#825=CARTESIAN_POINT('Ctrl Pts',(414.030631189051,384.082672244743,275.000000000046));
#826=CARTESIAN_POINT('Ctrl Pts',(413.145326119842,383.016831885235,275.000000000046));
#827=CARTESIAN_POINT('Ctrl Pts',(411.584919390356,380.695921310696,275.000000000046));
#828=CARTESIAN_POINT('Ctrl Pts',(410.909720511887,379.440916459387,275.000000000046));
#829=CARTESIAN_POINT('Ctrl Pts',(409.825400408429,376.823136159665,275.000000000046));
#830=CARTESIAN_POINT('Ctrl Pts',(409.415415673261,375.458276013268,275.000000000046));
#831=CARTESIAN_POINT('Ctrl Pts',(408.877658247306,372.713770227655,275.000000000046));
#832=CARTESIAN_POINT('Ctrl Pts',(408.750000519292,371.334102063928,275.000000000046));
#833=CARTESIAN_POINT('Ctrl Pts',(408.750000519292,368.66590461193,275.000000000046));
#834=CARTESIAN_POINT('Ctrl Pts',(408.877658247306,367.286236448202,275.000000000046));
#835=CARTESIAN_POINT('Ctrl Pts',(409.415415673261,364.54173066259,275.000000000047));
#836=CARTESIAN_POINT('Ctrl Pts',(409.825400408429,363.176870516192,275.000000000047));
#837=CARTESIAN_POINT('Ctrl Pts',(410.909720511887,360.55909021647,275.000000000047));
#838=CARTESIAN_POINT('Ctrl Pts',(411.584919390356,359.304085365161,275.000000000047));
#839=CARTESIAN_POINT('Ctrl Pts',(413.145326119842,356.983174790623,275.000000000047));
#840=CARTESIAN_POINT('Ctrl Pts',(414.030631189051,355.917334431114,275.000000000046));
#841=CARTESIAN_POINT('Ctrl Pts',(415.917331700903,354.030633919261,275.000000000046));
#842=CARTESIAN_POINT('Ctrl Pts',(416.983172060412,353.145328850052,275.000000000046));
#843=CARTESIAN_POINT('Ctrl Pts',(419.304082634951,351.584922120566,275.000000000045));
#844=CARTESIAN_POINT('Ctrl Pts',(420.559087486259,350.909723242098,275.000000000045));
#845=CARTESIAN_POINT('Ctrl Pts',(423.176867785982,349.825403138639,275.000000000044));
#846=CARTESIAN_POINT('Ctrl Pts',(424.541727932379,349.415418403472,275.000000000043));
#847=CARTESIAN_POINT('Ctrl Pts',(427.286233717992,348.877660977517,275.000000000042));
#848=CARTESIAN_POINT('Ctrl Pts',(428.665901881719,348.750003249502,275.000000000041));
#849=CARTESIAN_POINT('Ctrl Pts',(431.334099333717,348.750003249502,275.00000000004));
#850=CARTESIAN_POINT('Ctrl Pts',(432.713767497445,348.877660977517,275.00000000004));
#851=CARTESIAN_POINT('Ctrl Pts',(435.458273283057,349.415418403472,275.000000000039));
#852=CARTESIAN_POINT('Ctrl Pts',(436.823133429454,349.825403138639,275.000000000038));
#853=CARTESIAN_POINT('Ctrl Pts',(439.440913729177,350.909723242098,275.000000000037));
#854=CARTESIAN_POINT('Ctrl Pts',(440.695918580486,351.584922120566,275.000000000037));
#855=CARTESIAN_POINT('Ctrl Pts',(443.016829155024,353.145328850052,275.000000000036));
#856=CARTESIAN_POINT('Ctrl Pts',(444.082669514533,354.030633919261,275.000000000036));
#857=CARTESIAN_POINT('Ctrl Pts',(445.969370026385,355.917334431114,275.000000000036));
#858=CARTESIAN_POINT('Ctrl Pts',(446.854675095594,356.983174790623,275.000000000035));
#859=CARTESIAN_POINT('Ctrl Pts',(448.41508182508,359.304085365161,275.000000000036));
#860=CARTESIAN_POINT('Ctrl Pts',(449.090280703549,360.55909021647,275.000000000036));
#861=CARTESIAN_POINT('Ctrl Pts',(450.174600807007,363.176870516192,275.000000000037));
#862=CARTESIAN_POINT('Ctrl Pts',(450.584585542175,364.54173066259,275.000000000037));
#863=CARTESIAN_POINT('Ctrl Pts',(451.12234296813,367.286236448202,275.000000000038));
#864=CARTESIAN_POINT('Ctrl Pts',(451.250000696144,368.66590461193,275.000000000038));
#865=CARTESIAN_POINT('Ctrl Pts',(451.250000696144,370.000003337929,275.000000000039));
#866=CARTESIAN_POINT('Origin',(100.000001500003,370.000008125415,280.000032414601));
#867=CARTESIAN_POINT('',(73.7499979918713,370.,280.));
#868=CARTESIAN_POINT('Origin',(99.9999991792488,370.000000391597,280.));
#869=CARTESIAN_POINT('',(78.7500002420944,370.,274.999999999999));
#870=CARTESIAN_POINT('',(73.7499678980172,370.000008125415,280.000030093842));
#871=CARTESIAN_POINT('Ctrl Pts',(121.249999884655,370.00000333793,275.000000000055));
#872=CARTESIAN_POINT('Ctrl Pts',(121.249999884655,371.334102047157,275.000000000062));
#873=CARTESIAN_POINT('Ctrl Pts',(121.122342158246,372.71377019354,275.000000000069));
#874=CARTESIAN_POINT('Ctrl Pts',(120.584584739051,375.45827594465,275.000000000083));
#875=CARTESIAN_POINT('Ctrl Pts',(120.174600009038,376.823136073888,275.000000000089));
#876=CARTESIAN_POINT('Ctrl Pts',(119.090279919211,379.440916340702,275.000000000102));
#877=CARTESIAN_POINT('Ctrl Pts',(118.415081049231,380.695921176233,275.000000000107));
#878=CARTESIAN_POINT('Ctrl Pts',(116.854674339361,383.016831721594,275.000000000117));
#879=CARTESIAN_POINT('Ctrl Pts',(115.969369281282,384.082672067703,275.000000000122));
#880=CARTESIAN_POINT('Ctrl Pts',(114.082668793148,385.969372555837,275.000000000129));
#881=CARTESIAN_POINT('Ctrl Pts',(113.016828447039,386.854677613916,275.000000000132));
#882=CARTESIAN_POINT('Ctrl Pts',(110.695917901678,388.415084323786,275.000000000137));
#883=CARTESIAN_POINT('Ctrl Pts',(109.440913066146,389.090283193766,275.000000000139));
#884=CARTESIAN_POINT('Ctrl Pts',(106.823132799333,390.174603283593,275.000000000141));
#885=CARTESIAN_POINT('Ctrl Pts',(105.458272670095,390.584588013606,275.000000000142));
#886=CARTESIAN_POINT('Ctrl Pts',(102.713766918985,391.122345432801,275.000000000141));
#887=CARTESIAN_POINT('Ctrl Pts',(101.334098772602,391.25000315921,275.00000000014));
#888=CARTESIAN_POINT('Ctrl Pts',(98.6659013541473,391.25000315921,275.000000000137));
#889=CARTESIAN_POINT('Ctrl Pts',(97.2862332077644,391.122345432801,275.000000000134));
#890=CARTESIAN_POINT('Ctrl Pts',(94.5417274566547,390.584588013606,275.000000000128));
#891=CARTESIAN_POINT('Ctrl Pts',(93.1768673274159,390.174603283593,275.000000000124));
#892=CARTESIAN_POINT('Ctrl Pts',(90.559087060603,389.090283193766,275.000000000115));
#893=CARTESIAN_POINT('Ctrl Pts',(89.3040822250715,388.415084323786,275.00000000011));
#894=CARTESIAN_POINT('Ctrl Pts',(86.9831716797105,386.854677613916,275.000000000099));
#895=CARTESIAN_POINT('Ctrl Pts',(85.9173313336012,385.969372555837,275.000000000093));
#896=CARTESIAN_POINT('Ctrl Pts',(84.0306308454674,384.082672067703,275.000000000081));
#897=CARTESIAN_POINT('Ctrl Pts',(83.145325787388,383.016831721594,275.000000000074));
#898=CARTESIAN_POINT('Ctrl Pts',(81.5849190775186,380.695921176233,275.00000000006));
#899=CARTESIAN_POINT('Ctrl Pts',(80.9097202075383,379.440916340701,275.000000000052));
#900=CARTESIAN_POINT('Ctrl Pts',(79.8254001177117,376.823136073888,275.000000000037));
#901=CARTESIAN_POINT('Ctrl Pts',(79.4154153876981,375.45827594465,275.000000000029));
#902=CARTESIAN_POINT('Ctrl Pts',(78.8776579685037,372.71377019354,275.000000000014));
#903=CARTESIAN_POINT('Ctrl Pts',(78.7500002420941,371.334102047157,275.000000000006));
#904=CARTESIAN_POINT('Ctrl Pts',(78.7500002420941,368.665904628702,274.999999999992));
#905=CARTESIAN_POINT('Ctrl Pts',(78.8776579685037,367.28623648232,274.999999999985));
#906=CARTESIAN_POINT('Ctrl Pts',(79.4154153876981,364.54173073121,274.99999999997));
#907=CARTESIAN_POINT('Ctrl Pts',(79.8254001177118,363.176870601971,274.999999999964));
#908=CARTESIAN_POINT('Ctrl Pts',(80.9097202075384,360.559090335158,274.999999999951));
#909=CARTESIAN_POINT('Ctrl Pts',(81.5849190775187,359.304085499627,274.999999999945));
#910=CARTESIAN_POINT('Ctrl Pts',(83.1453257873881,356.983174954266,274.999999999934));
#911=CARTESIAN_POINT('Ctrl Pts',(84.0306308454674,355.917334608156,274.99999999993));
#912=CARTESIAN_POINT('Ctrl Pts',(85.9173313336012,354.030634120022,274.999999999922));
#913=CARTESIAN_POINT('Ctrl Pts',(86.9831716797106,353.145329061943,274.999999999918));
#914=CARTESIAN_POINT('Ctrl Pts',(89.3040822250715,351.584922352074,274.999999999913));
#915=CARTESIAN_POINT('Ctrl Pts',(90.559087060603,350.909723482093,274.999999999911));
#916=CARTESIAN_POINT('Ctrl Pts',(93.176867327416,349.825403392267,274.999999999909));
#917=CARTESIAN_POINT('Ctrl Pts',(94.5417274566547,349.415418662253,274.999999999908));
#918=CARTESIAN_POINT('Ctrl Pts',(97.2862332077645,348.877661243059,274.999999999909));
#919=CARTESIAN_POINT('Ctrl Pts',(98.6659013541473,348.750003516649,274.99999999991));
#920=CARTESIAN_POINT('Ctrl Pts',(101.334098772602,348.750003516649,274.999999999914));
#921=CARTESIAN_POINT('Ctrl Pts',(102.713766918985,348.877661243059,274.999999999917));
#922=CARTESIAN_POINT('Ctrl Pts',(105.458272670095,349.415418662253,274.999999999923));
#923=CARTESIAN_POINT('Ctrl Pts',(106.823132799333,349.825403392267,274.999999999927));
#924=CARTESIAN_POINT('Ctrl Pts',(109.440913066146,350.909723482093,274.999999999937));
#925=CARTESIAN_POINT('Ctrl Pts',(110.695917901678,351.584922352074,274.999999999942));
#926=CARTESIAN_POINT('Ctrl Pts',(113.016828447039,353.145329061943,274.999999999954));
#927=CARTESIAN_POINT('Ctrl Pts',(114.082668793148,354.030634120023,274.99999999996));
#928=CARTESIAN_POINT('Ctrl Pts',(115.969369281282,355.917334608156,274.999999999973));
#929=CARTESIAN_POINT('Ctrl Pts',(116.854674339361,356.983174954266,274.99999999998));
#930=CARTESIAN_POINT('Ctrl Pts',(118.415081049231,359.304085499627,274.999999999994));
#931=CARTESIAN_POINT('Ctrl Pts',(119.090279919211,360.559090335158,275.000000000002));
#932=CARTESIAN_POINT('Ctrl Pts',(120.174600009038,363.176870601971,275.000000000017));
#933=CARTESIAN_POINT('Ctrl Pts',(120.584584739051,364.54173073121,275.000000000025));
#934=CARTESIAN_POINT('Ctrl Pts',(121.122342158246,367.28623648232,275.00000000004));
#935=CARTESIAN_POINT('Ctrl Pts',(121.249999884655,368.665904628702,275.000000000048));
#936=CARTESIAN_POINT('Ctrl Pts',(121.249999884655,370.00000333793,275.000000000055));
#937=CARTESIAN_POINT('Origin',(100.000000063375,370.00000333793,80.));
#938=CARTESIAN_POINT('',(78.7500002420944,370.,80.));
#939=CARTESIAN_POINT('',(78.7500002420941,370.00000333793,80.));
#940=CARTESIAN_POINT('Origin',(100.000000063375,370.00000333793,80.));
#941=CARTESIAN_POINT('Origin',(530.,205.000000007868,154.999999956811));
#942=CARTESIAN_POINT('',(499.999999978374,245.000000589959,154.999999987788));
#943=CARTESIAN_POINT('Origin',(500.,205.000000069439,154.999999987788));
#944=CARTESIAN_POINT('',(530.000000185815,245.000000528388,154.999999956811));
#945=CARTESIAN_POINT('',(530.000000082095,245.000000528388,154.999999956811));
#946=CARTESIAN_POINT('Origin',(530.,205.000000007868,154.999999956811));
#947=CARTESIAN_POINT('Origin',(500.,290.000000214592,155.00000022242));
#948=CARTESIAN_POINT('',(530.,272.500000884748,155.));
#949=CARTESIAN_POINT('Origin',(530.,290.000000214592,155.00000022242));
#950=CARTESIAN_POINT('',(500.,272.500000884748,155.));
#951=CARTESIAN_POINT('',(500.,272.500000884748,155.00000022242));
#952=CARTESIAN_POINT('Origin',(500.,290.000000214592,155.00000022242));
#953=CARTESIAN_POINT('Origin',(500.,205.00000036572,240.0000001657));
#954=CARTESIAN_POINT('',(530.000000000001,187.499999662507,240.));
#955=CARTESIAN_POINT('Origin',(530.000000000001,205.00000036572,240.000000165699));
#956=CARTESIAN_POINT('',(500.000000000001,187.499999662507,240.));
#957=CARTESIAN_POINT('',(500.,187.499999662507,240.0000001657));
#958=CARTESIAN_POINT('Origin',(500.000000000001,205.00000036572,240.0000001657));
#959=CARTESIAN_POINT('Origin',(-1.82390465278775E-14,205.,155.));
#960=CARTESIAN_POINT('',(499.999999999752,80.,155.000000035037));
#961=CARTESIAN_POINT('',(-2.27215207498501E-9,80.,155.));
#962=CARTESIAN_POINT('',(-1.82390465278775E-14,80.,155.));
#963=CARTESIAN_POINT('',(499.999999999752,330.,155.000000035037));
#964=CARTESIAN_POINT('Origin',(499.999999999505,205.,155.00000003646));
#965=CARTESIAN_POINT('',(-2.27214880926019E-9,330.,155.));
#966=CARTESIAN_POINT('',(-1.82390465278775E-14,330.,155.));
#967=CARTESIAN_POINT('Origin',(-5.11233757629052E-9,205.,155.));
#968=CARTESIAN_POINT('Origin',(500.,205.00000036572,69.999999736342));
#969=CARTESIAN_POINT('',(530.,187.499999997647,70.));
#970=CARTESIAN_POINT('Origin',(530.,205.00000036572,69.999999736342));
#971=CARTESIAN_POINT('',(500.,187.499999997647,70.));
#972=CARTESIAN_POINT('',(500.,187.499999997647,69.999999736342));
#973=CARTESIAN_POINT('Origin',(500.,205.00000036572,69.999999736342));
#974=CARTESIAN_POINT('Origin',(500.,120.000000715326,155.00000022242));
#975=CARTESIAN_POINT('',(530.,102.500000991308,155.));
#976=CARTESIAN_POINT('Origin',(530.,120.000000715326,155.00000022242));
#977=CARTESIAN_POINT('',(500.,102.500000991308,155.));
#978=CARTESIAN_POINT('',(500.,102.500000991308,155.00000022242));
#979=CARTESIAN_POINT('Origin',(500.,120.000000715326,155.00000022242));
#980=CARTESIAN_POINT('Origin',(430.000000607718,39.9999997652122,80.));
#981=CARTESIAN_POINT('',(408.750000439586,40.,80.));
#982=CARTESIAN_POINT('',(408.750000439586,39.9999997652123,80.));
#983=CARTESIAN_POINT('Origin',(430.000000607718,39.9999997652122,80.));
#984=CARTESIAN_POINT('Origin',(100.000000063375,39.9999997652122,80.));
#985=CARTESIAN_POINT('',(78.7500001623956,40.,80.));
#986=CARTESIAN_POINT('',(78.7500001623956,39.9999997652122,80.));
#987=CARTESIAN_POINT('Origin',(100.000000063375,39.9999997652122,80.));
#988=CARTESIAN_POINT('Origin',(430.000000607718,370.000003337929,80.));
#989=CARTESIAN_POINT('',(408.750000519292,370.,80.));
#990=CARTESIAN_POINT('',(408.750000519292,370.000003337929,80.));
#991=CARTESIAN_POINT('Origin',(430.000000607718,370.000003337929,80.));
#992=CARTESIAN_POINT('Origin',(100.000000394624,370.000002104661,80.));
#993=CARTESIAN_POINT('Origin',(250.,80.,217.5));
#994=CARTESIAN_POINT('',(500.,80.,280.));
#995=CARTESIAN_POINT('',(-5.66399158070984E-14,80.,280.));
#996=CARTESIAN_POINT('',(257.875427760362,80.,280.));
#997=CARTESIAN_POINT('',(500.,80.,182.853692783399));
#998=CARTESIAN_POINT('',(0.,80.,151.195133728317));
#999=CARTESIAN_POINT('Origin',(250.,330.,217.5));
#1000=CARTESIAN_POINT('',(500.,330.,280.));
#1001=CARTESIAN_POINT('',(500.,330.,182.853692783399));
#1002=CARTESIAN_POINT('',(3.39839486372261E-14,330.,280.));
#1003=CARTESIAN_POINT('',(257.875427760362,330.,280.));
#1004=CARTESIAN_POINT('',(0.,330.,151.195133728317));
#1005=CARTESIAN_POINT('Origin',(530.,204.841586462136,155.034161760507));
#1006=CARTESIAN_POINT('',(530.,410.,0.));
#1007=CARTESIAN_POINT('',(530.,0.,0.));
#1008=CARTESIAN_POINT('',(530.,202.045793231068,0.));
#1009=CARTESIAN_POINT('',(530.,410.,280.));
#1010=CARTESIAN_POINT('',(530.,410.,151.892080880254));
#1011=CARTESIAN_POINT('',(530.,-1.90819582357449E-13,280.));
#1012=CARTESIAN_POINT('',(530.,204.871732350947,280.));
#1013=CARTESIAN_POINT('',(530.,-1.42496713715878E-13,151.892080880254));
#1014=CARTESIAN_POINT('Origin',(500.,205.044183683455,148.207385566797));
#1015=CARTESIAN_POINT('',(500.,204.973030961607,280.));
#1016=CARTESIAN_POINT('Origin',(318.,410.,148.75));
#1017=CARTESIAN_POINT('',(3.39839486372261E-14,410.,280.));
#1018=CARTESIAN_POINT('',(0.,410.,0.));
#1019=CARTESIAN_POINT('',(0.,410.,116.820133728317));
#1020=CARTESIAN_POINT('',(291.875427760362,410.,280.));
#1021=CARTESIAN_POINT('',(318.,410.,0.));
#1022=CARTESIAN_POINT('Origin',(9.23910668089572E-15,204.999999154972,84.8902674566341));
#1023=CARTESIAN_POINT('',(-5.66399158070984E-14,-6.93889390390723E-14,280.));
#1024=CARTESIAN_POINT('',(1.77635683940025E-14,204.950938697365,280.));
#1025=CARTESIAN_POINT('',(1.77635683940025E-14,204.950938697365,280.));
#1026=CARTESIAN_POINT('',(0.,0.,0.));
#1027=CARTESIAN_POINT('',(1.77635683940025E-14,202.124999577486,0.));
#1028=CARTESIAN_POINT('',(1.77635683940025E-14,-2.60631027452166E-14,116.820133728317));
#1029=CARTESIAN_POINT('Origin',(318.,199.25,0.));
#1030=CARTESIAN_POINT('',(318.,-3.84864902624806E-14,0.));
#1031=CARTESIAN_POINT('Origin',(265.750855520724,204.901878239759,280.));
#1032=CARTESIAN_POINT('',(291.875427760362,-1.70844826546311E-13,280.));
#1033=CARTESIAN_POINT('Origin',(430.00000105233,39.9999997698028,80.));
#1034=CARTESIAN_POINT('Origin',(318.,-9.36750677027476E-14,148.75));
#1035=CARTESIAN_POINT('Origin',(430.00000105233,370.000002104661,80.));
#1036=CARTESIAN_POINT('Origin',(100.000000394624,39.9999997698028,80.));
#1037=UNCERTAINTY_MEASURE_WITH_UNIT(LENGTH_MEASURE(0.01),#1041,
'DISTANCE_ACCURACY_VALUE',
'Maximum model space distance between geometric entities at asserted c
onnectivities');
#1038=UNCERTAINTY_MEASURE_WITH_UNIT(LENGTH_MEASURE(0.01),#1041,
'DISTANCE_ACCURACY_VALUE',
'Maximum model space distance between geometric entities at asserted c
onnectivities');
#1039=(
GEOMETRIC_REPRESENTATION_CONTEXT(3)
GLOBAL_UNCERTAINTY_ASSIGNED_CONTEXT((#1037))
GLOBAL_UNIT_ASSIGNED_CONTEXT((#1041,#1043,#1044))
REPRESENTATION_CONTEXT('','3D')
);
#1040=(
GEOMETRIC_REPRESENTATION_CONTEXT(3)
GLOBAL_UNCERTAINTY_ASSIGNED_CONTEXT((#1038))
GLOBAL_UNIT_ASSIGNED_CONTEXT((#1041,#1043,#1044))
REPRESENTATION_CONTEXT('','3D')
);
#1041=(
LENGTH_UNIT()
NAMED_UNIT(*)
SI_UNIT(.MILLI.,.METRE.)
);
#1042=(
LENGTH_UNIT()
NAMED_UNIT(*)
SI_UNIT($,.METRE.)
);
#1043=(
NAMED_UNIT(*)
PLANE_ANGLE_UNIT()
SI_UNIT($,.RADIAN.)
);
#1044=(
NAMED_UNIT(*)
SI_UNIT($,.STERADIAN.)
SOLID_ANGLE_UNIT()
);
#1045=SHAPE_DEFINITION_REPRESENTATION(#1046,#1047);
#1046=PRODUCT_DEFINITION_SHAPE('',$,#1049);
#1047=SHAPE_REPRESENTATION('',(#473),#1039);
#1048=PRODUCT_DEFINITION_CONTEXT('part definition',#1053,'design');
#1049=PRODUCT_DEFINITION('Bracket','Bracket v2',#1050,#1048);
#1050=PRODUCT_DEFINITION_FORMATION('',$,#1055);
#1051=PRODUCT_RELATED_PRODUCT_CATEGORY('Bracket v2','Bracket v2',(#1055));
#1052=APPLICATION_PROTOCOL_DEFINITION('international standard',
'automotive_design',2009,#1053);
#1053=APPLICATION_CONTEXT(
'Core Data for Automotive Mechanical Design Process');
#1054=PRODUCT_CONTEXT('part definition',#1053,'mechanical');
#1055=PRODUCT('Bracket','Bracket v2',$,(#1054));
#1056=PRESENTATION_STYLE_ASSIGNMENT((#1057));
#1057=SURFACE_STYLE_USAGE(.BOTH.,#1058);
#1058=SURFACE_SIDE_STYLE('',(#1059));
#1059=SURFACE_STYLE_FILL_AREA(#1060);
#1060=FILL_AREA_STYLE('Steel - Satin',(#1061));
#1061=FILL_AREA_STYLE_COLOUR('Steel - Satin',#1062);
#1062=COLOUR_RGB('Steel - Satin',0.627450980392157,0.627450980392157,0.627450980392157);
ENDSEC;
END-ISO-10303-21;
